<?xml version="1.0" standalone="no"?>
<!DOCTYPE svg PUBLIC "-//W3C//DTD SVG 20010904//EN"
 "http://www.w3.org/TR/2001/REC-SVG-20010904/DTD/svg10.dtd">
<svg version="1.0" xmlns="http://www.w3.org/2000/svg"
 width="316.000000pt" height="316.000000pt" viewBox="0 0 316.000000 316.000000"
 preserveAspectRatio="xMidYMid meet">
<metadata>
Created by potrace 1.11, written by Peter Selinger 2001-2013
</metadata>
<g transform="translate(0.000000,316.000000) scale(0.100000,-0.100000)"
fill="#000000" stroke="none">
<path d="M860 2732 c-8 -9 -15 -19 -15 -22 0 -3 -26 -48 -58 -102 -31 -53 -57
-98 -57 -101 0 -2 378 -5 840 -5 462 0 840 3 840 7 0 3 -16 32 -35 64 -19 32
-35 62 -35 68 0 5 -5 9 -12 9 -6 0 -9 3 -5 6 3 3 1 11 -4 18 -6 6 -19 25 -29
43 l-19 31 -698 0 c-635 0 -699 -1 -713 -16z"/>
<path d="M677 2420 c-7 -14 -14 -27 -18 -30 -3 -3 -16 -25 -30 -50 -13 -25
-30 -49 -36 -53 -7 -4 -13 -17 -13 -27 0 -11 -5 -20 -10 -20 -10 0 -35 -48
-32 -62 1 -5 -2 -8 -7 -8 -5 0 -16 -12 -23 -27 -22 -44 -42 -77 -57 -95 -8
-10 -11 -18 -8 -18 3 0 -14 -30 -39 -67 -24 -38 -44 -73 -44 -80 0 -6 -5 -13
-11 -15 -8 -3 -7 -8 2 -18 17 -18 56 -85 72 -122 6 -16 15 -28 19 -28 4 0 8
-7 8 -15 0 -8 5 -15 10 -15 6 0 10 -9 10 -20 0 -11 4 -20 9 -20 9 0 16 11 56
88 10 17 21 32 26 32 5 0 9 7 9 15 0 8 5 15 11 15 5 0 8 4 5 9 -3 5 1 14 9 21
8 7 15 19 15 27 0 7 7 16 15 19 8 4 13 10 10 14 -3 4 4 19 15 33 11 14 20 30
20 35 0 6 4 12 8 14 8 3 63 94 62 103 0 3 6 13 15 21 8 9 15 22 15 30 0 8 5
14 10 14 6 0 10 5 10 11 0 6 14 31 30 56 17 24 30 46 30 49 0 3 9 14 20 26 10
12 17 25 14 30 -3 4 -1 8 4 8 5 0 15 14 22 30 7 17 16 30 20 30 4 0 11 11 14
25 4 14 11 25 16 25 6 0 10 8 10 18 0 17 -11 19 -141 18 l-141 0 -11 -26z"/>
<path d="M1027 2426 c-8 -12 -17 -28 -20 -36 -4 -8 -16 -28 -26 -45 -11 -16
-29 -48 -41 -70 -12 -22 -30 -49 -40 -60 -10 -11 -20 -24 -22 -30 -2 -5 -7 -9
-11 -7 -5 1 -6 -2 -2 -8 3 -5 -3 -24 -15 -40 -12 -17 -18 -30 -13 -30 4 0 0
-5 -9 -11 -10 -5 -18 -14 -18 -19 0 -5 -13 -28 -29 -52 -16 -24 -39 -62 -51
-85 -12 -24 -27 -43 -33 -43 -6 0 -8 -3 -4 -6 3 -3 -5 -24 -19 -45 -13 -21
-24 -43 -24 -49 0 -5 -4 -10 -10 -10 -5 0 -10 -4 -10 -10 0 -9 -69 -122 -89
-146 -18 -22 -23 -57 -11 -80 7 -13 17 -21 22 -18 5 3 8 2 7 -3 -5 -18 14 -62
28 -67 8 -4 13 -12 10 -19 -3 -8 4 -19 14 -25 10 -7 19 -18 19 -25 0 -7 9 -23
19 -34 11 -11 21 -29 23 -39 2 -11 11 -28 21 -38 9 -11 17 -25 17 -32 0 -6 7
-17 15 -24 8 -7 15 -21 15 -31 0 -11 5 -19 10 -19 6 0 14 -10 19 -23 9 -23 51
-90 71 -114 6 -7 8 -13 5 -13 -4 0 3 -13 14 -29 12 -16 21 -34 21 -40 0 -6 5
-11 10 -11 6 0 10 -6 10 -14 0 -8 6 -21 13 -28 7 -7 24 -33 38 -58 13 -25 29
-48 34 -52 6 -4 6 -8 2 -8 -5 0 -1 -7 8 -16 9 -9 18 -28 21 -43 l6 -26 532 0
c443 0 536 2 550 14 9 8 26 36 38 63 11 26 24 48 28 48 5 0 13 12 19 28 6 15
24 50 41 77 17 28 33 58 37 67 3 10 9 18 14 18 5 0 9 9 9 20 0 10 7 23 16 28
9 5 16 12 16 15 0 20 12 47 21 47 6 0 8 3 4 6 -3 4 1 13 9 21 8 8 12 19 9 24
-4 5 -2 9 4 9 6 0 24 29 42 65 17 36 36 65 42 65 6 0 8 3 4 6 -3 3 8 29 25 57
63 107 77 135 70 142 -4 5 -1 5 6 1 7 -4 12 -1 12 8 0 9 4 16 10 16 5 0 7 6 5
13 -4 9 -106 12 -461 12 -360 0 -457 2 -461 12 -3 7 -11 13 -19 13 -8 0 -14 7
-14 15 0 8 -4 15 -10 15 -5 0 -10 4 -10 10 0 11 -56 90 -90 128 -12 12 -18 22
-14 22 4 0 -2 10 -14 23 -21 23 -21 23 -2 52 11 17 20 26 20 20 0 -10 567 -12
576 -2 7 7 -28 77 -38 77 -4 0 -8 4 -8 10 0 5 -20 41 -45 80 -25 39 -45 75
-45 80 0 6 -4 10 -10 10 -5 0 -10 7 -10 15 0 8 -4 15 -10 15 -5 0 -10 4 -10 9
0 11 -111 194 -123 202 -5 3 -9 10 -9 15 0 5 -7 20 -15 35 l-15 25 -354 0
c-346 0 -355 0 -367 -20z"/>
<path d="M1820 2437 c0 -11 60 -120 70 -127 4 -3 10 -15 14 -27 4 -13 12 -23
17 -23 5 0 9 -6 9 -13 0 -8 8 -21 18 -30 10 -9 24 -32 32 -52 8 -19 18 -35 22
-35 5 0 7 -4 4 -9 -3 -5 1 -11 9 -15 8 -3 15 -14 15 -25 0 -10 6 -21 13 -24 6
-2 25 -30 40 -61 16 -31 31 -56 34 -56 7 0 44 47 43 55 0 3 9 15 20 27 11 12
20 28 20 35 0 7 5 13 11 13 5 0 7 5 4 10 -3 6 1 13 9 16 9 3 14 10 11 14 -3 5
2 15 10 23 8 9 15 20 15 26 0 6 3 11 8 11 7 0 25 30 38 63 3 9 10 17 15 17 5
0 9 6 9 14 0 7 9 24 19 38 30 38 83 138 74 140 -37 6 -603 2 -603 -5z"/>
<path d="M2456 2377 c-3 -12 -13 -31 -23 -42 -10 -11 -24 -31 -30 -45 -7 -14
-24 -43 -38 -65 -14 -22 -30 -50 -37 -62 -6 -13 -15 -23 -20 -23 -5 0 -6 -4
-3 -10 3 -5 1 -10 -5 -10 -6 0 -8 -5 -5 -10 3 -6 -1 -13 -10 -16 -9 -4 -14
-13 -11 -20 3 -8 1 -14 -4 -14 -5 0 -17 -15 -26 -32 -9 -18 -20 -35 -23 -38
-3 -3 -12 -15 -18 -27 -7 -13 -19 -33 -25 -45 -7 -13 -17 -26 -23 -30 -5 -4
-7 -10 -3 -13 4 -4 476 -9 616 -6 13 1 22 7 22 17 0 8 -4 12 -10 9 -9 -5 -11
-1 -10 20 0 3 -9 15 -20 27 -11 12 -20 25 -20 29 0 4 -16 31 -35 60 -19 30
-35 57 -35 62 0 9 -70 128 -81 137 -3 3 -16 25 -30 50 -13 25 -29 51 -36 58
-6 6 -14 21 -18 31 -9 29 -32 33 -39 8z"/>
<path d="M1577 1812 c-18 -4 -24 -32 -7 -32 6 0 10 -5 10 -10 0 -11 11 -26 48
-66 12 -14 22 -28 22 -33 0 -4 9 -17 20 -29 l20 -22 626 0 626 1 -22 37 c-13
20 -36 61 -53 90 -16 30 -36 56 -43 59 -14 5 -1220 10 -1247 5z"/>
<path d="M291 1774 c-11 -15 -18 -30 -15 -35 3 -5 0 -9 -6 -9 -6 0 -13 -8 -17
-17 -4 -10 -19 -37 -35 -60 -16 -24 -25 -43 -21 -43 4 0 2 -4 -6 -9 -13 -8
-12 -15 4 -50 10 -23 23 -41 28 -41 6 0 7 -3 4 -7 -4 -3 -1 -13 5 -21 14 -16
31 -44 50 -82 7 -14 15 -27 19 -30 3 -3 16 -25 30 -50 13 -25 26 -47 29 -50 3
-3 34 -53 69 -113 35 -59 67 -110 72 -113 5 -3 9 -14 9 -25 0 -10 4 -19 8 -19
5 0 14 -16 22 -35 8 -19 17 -35 21 -35 3 0 12 -13 19 -30 7 -16 15 -30 19 -30
4 0 18 -22 32 -50 13 -27 27 -50 32 -50 4 0 7 -8 7 -18 0 -10 10 -26 23 -37
19 -17 38 -20 145 -20 68 -1 126 3 128 7 3 4 0 8 -6 8 -6 0 -8 4 -5 10 3 5 1
10 -4 10 -6 0 -11 3 -10 8 2 14 -13 52 -21 52 -8 0 -23 38 -21 52 1 5 -2 7 -7
5 -4 -1 -8 2 -9 7 -1 5 -5 12 -10 15 -4 3 -19 26 -32 51 -13 25 -33 56 -43 69
-10 13 -15 28 -11 34 3 6 1 7 -5 3 -7 -4 -12 -2 -12 4 0 6 -24 52 -54 103 -30
51 -55 97 -56 102 -1 6 -8 14 -16 18 -8 4 -14 14 -14 21 0 7 -9 23 -20 36 -11
12 -17 27 -14 31 3 5 0 9 -7 9 -7 0 -10 3 -6 6 3 3 -3 15 -14 27 -10 11 -19
27 -19 34 0 7 -3 13 -7 13 -5 0 -21 26 -38 57 -16 32 -36 64 -42 71 -7 7 -13
20 -13 28 0 8 -4 14 -8 14 -4 0 -13 12 -20 28 -23 51 -43 82 -53 82 -5 0 -9 3
-8 8 2 15 -14 52 -22 52 -5 0 -9 7 -9 15 0 23 -16 18 -39 -11z"/>
<path d="M2651 1560 c-3 -3 -12 -16 -19 -30 -7 -14 -26 -47 -42 -75 -17 -27
-39 -68 -51 -90 -12 -22 -27 -43 -33 -47 -6 -4 -8 -8 -4 -8 3 0 -22 -50 -58
-110 -54 -94 -122 -217 -159 -291 -5 -10 -13 -19 -18 -19 -4 0 -5 -4 -2 -10 3
-5 2 -10 -3 -10 -5 0 -15 -14 -22 -31 -7 -17 -18 -36 -24 -42 -12 -13 -46 -83
-46 -95 0 -6 222 -9 267 -3 6 0 16 13 22 29 12 32 41 81 59 101 8 8 18 24 23
35 5 12 27 50 49 85 22 34 40 64 40 66 0 2 20 38 45 79 25 42 45 81 45 86 0 6
3 10 8 10 4 0 22 26 40 58 18 31 44 75 58 97 14 22 27 48 31 57 3 10 10 15 15
11 6 -3 8 0 6 8 -3 8 6 27 19 42 13 16 21 33 17 38 -3 5 -1 9 4 9 11 0 35 50
24 51 -25 4 -285 3 -291 -1z"/>
<path d="M747 622 c9 -24 36 -66 48 -74 5 -4 6 -8 2 -8 -4 0 6 -20 23 -44 16
-25 30 -49 30 -55 0 -6 5 -11 10 -11 6 0 10 -7 10 -15 0 -13 83 -15 689 -15
379 0 696 3 705 6 9 3 16 10 16 15 0 4 27 52 59 106 33 54 57 101 55 105 -2 3
-375 6 -829 7 -768 0 -823 -1 -818 -17z"/>
</g>
</svg>
