<?xml version="1.0" encoding="UTF-8" ?>
<!DOCTYPE svg PUBLIC "-//W3C//DTD SVG 1.1//EN" "http://www.w3.org/Graphics/SVG/1.1/DTD/svg11.dtd">
<svg width="2302pt" height="434pt" viewBox="0 0 2302 434" version="1.1" xmlns="http://www.w3.org/2000/svg">
<path fill="#ffffff" d=" M 0.00 0.00 L 2302.00 0.00 L 2302.00 434.00 L 0.00 434.00 L 0.00 0.00 Z" />
<path fill="#0271c1" d=" M 1676.41 11.51 C 1676.82 9.92 1678.56 9.81 1679.97 9.89 C 1706.64 9.92 1733.32 9.89 1760.00 9.90 C 1770.35 10.14 1780.75 9.39 1791.07 10.31 C 1805.51 40.35 1820.95 69.92 1835.60 99.86 C 1820.69 129.68 1805.55 159.40 1790.92 189.36 C 1752.98 189.61 1715.03 189.49 1677.09 189.42 C 1662.43 159.41 1647.03 129.75 1632.47 99.71 C 1646.80 70.19 1661.88 40.97 1676.41 11.51 Z" />
<path fill="#0271c1" d=" M 2242.87 10.16 C 2249.63 9.62 2256.43 10.05 2263.22 9.86 C 2266.00 15.21 2268.66 20.62 2271.38 26.01 C 2268.72 31.23 2266.08 36.47 2263.51 41.74 C 2256.62 41.75 2249.73 41.84 2242.85 41.68 C 2240.35 36.41 2237.64 31.26 2235.11 26.01 C 2237.60 20.68 2240.47 15.53 2242.87 10.16 Z" />
<path fill="#0271c1" d=" M 2039.32 50.94 C 2045.85 37.40 2052.74 24.03 2059.43 10.57 C 2076.34 10.63 2093.25 10.56 2110.17 10.60 C 2115.31 20.86 2120.46 31.11 2125.58 41.37 C 2126.85 45.01 2130.70 48.45 2129.41 52.50 C 2123.03 65.28 2116.61 78.03 2110.23 90.81 C 2093.24 90.80 2076.25 90.89 2059.26 90.77 C 2052.70 77.45 2046.07 64.16 2039.32 50.94 Z" />
<path fill="#ff0303" d=" M 1941.01 39.65 C 1956.44 39.41 1971.87 39.63 1987.31 39.53 C 1993.10 51.37 1999.46 62.99 2004.81 75.00 C 1999.35 86.94 1993.15 98.59 1987.29 110.35 C 1971.86 110.23 1956.44 110.44 1941.02 110.24 C 1935.36 98.39 1929.38 86.69 1923.44 74.98 C 1929.34 63.23 1935.39 51.54 1941.01 39.65 Z" />
<path fill="#568237" d=" M 2172.00 61.60 C 2181.82 61.48 2191.65 61.64 2201.48 61.52 C 2205.73 69.22 2209.30 77.28 2213.48 85.02 C 2209.64 92.79 2205.49 100.42 2201.96 108.33 C 2191.95 108.65 2181.94 108.41 2171.94 108.46 C 2168.14 100.61 2164.09 92.89 2160.30 85.04 C 2164.20 77.22 2168.14 69.44 2172.00 61.60 Z" />
<path fill="#ff0303" d=" M 1360.90 63.39 C 1410.41 63.14 1459.92 63.35 1509.44 63.28 C 1528.74 101.77 1547.96 140.30 1567.30 178.76 C 1567.82 179.88 1567.91 181.21 1567.33 182.33 C 1548.03 220.72 1528.91 259.22 1509.56 297.58 C 1486.08 298.08 1462.54 297.65 1439.04 297.79 C 1412.99 297.74 1386.93 297.90 1360.88 297.71 C 1342.07 259.97 1323.15 222.28 1304.27 184.57 C 1303.58 182.87 1301.80 181.06 1302.99 179.17 C 1322.29 140.58 1341.72 102.04 1360.90 63.39 Z" />
<path fill="#ff0303" d=" M 2263.88 91.44 C 2271.56 91.48 2279.25 91.18 2286.93 91.62 C 2289.38 97.59 2292.69 103.16 2295.38 109.03 C 2294.43 112.48 2292.28 115.53 2290.83 118.81 C 2289.21 121.57 2288.34 124.81 2286.23 127.23 C 2278.78 127.41 2271.32 127.25 2263.88 127.29 C 2262.54 124.55 2261.18 121.83 2259.80 119.12 C 2258.41 116.17 2256.79 113.33 2255.47 110.35 C 2254.70 109.23 2255.61 108.05 2256.05 107.01 C 2258.68 101.84 2261.24 96.62 2263.88 91.44 Z" />
<path fill="#ff0303" d=" M 2069.17 127.28 C 2090.93 127.19 2112.69 127.25 2134.46 127.25 C 2142.85 143.83 2151.03 160.52 2159.49 177.07 C 2151.20 193.88 2142.79 210.64 2134.32 227.37 C 2112.60 227.30 2090.88 227.40 2069.17 227.32 C 2061.01 210.81 2052.81 194.32 2044.42 177.93 C 2044.48 177.45 2044.61 176.49 2044.67 176.01 C 2053.06 159.88 2061.04 143.54 2069.17 127.28 Z" />
<path fill="#0271c1" d=" M 2224.03 134.69 C 2230.78 134.45 2237.55 134.65 2244.33 134.56 C 2247.13 139.96 2249.83 145.40 2252.46 150.89 C 2249.65 156.06 2247.08 161.36 2244.48 166.63 C 2237.64 166.58 2230.79 166.80 2223.97 166.49 C 2221.80 161.17 2218.74 156.27 2216.49 151.00 C 2218.14 145.31 2221.83 140.26 2224.03 134.69 Z" />
<path fill="#568237" d=" M 1867.88 138.35 C 1900.85 138.14 1933.84 138.17 1966.81 138.34 C 1979.50 164.33 1992.72 190.07 2005.52 216.01 C 1998.52 231.23 1990.56 246.06 1983.19 261.13 C 1977.59 272.15 1972.25 283.32 1966.47 294.25 C 1933.63 294.07 1900.80 294.27 1867.96 294.15 C 1855.39 268.50 1842.43 243.04 1829.69 217.48 C 1829.22 216.51 1829.25 215.56 1829.77 214.61 C 1842.51 189.22 1855.35 163.86 1867.88 138.35 Z" />
<path fill="#ff0303" d=" M 2200.82 201.22 C 2210.72 201.37 2220.65 200.96 2230.54 201.41 C 2233.84 207.47 2236.64 213.80 2239.90 219.89 C 2240.83 221.88 2242.60 224.18 2241.30 226.43 C 2238.16 232.90 2234.76 239.24 2231.69 245.75 C 2231.13 246.81 2230.52 248.38 2229.04 248.13 C 2219.65 248.22 2210.25 248.11 2200.87 248.16 C 2197.09 240.39 2192.99 232.76 2189.35 224.93 C 2192.48 216.82 2197.08 209.15 2200.82 201.22 Z" />
<path fill="#345899" d=" M 101.23 216.50 C 122.76 208.75 146.46 207.35 168.89 211.60 C 187.85 215.45 206.92 224.37 218.31 240.58 C 225.27 250.59 230.10 262.09 232.64 274.00 C 223.99 275.83 215.60 278.71 207.00 280.78 C 203.65 270.01 199.39 258.95 191.13 250.94 C 179.65 240.04 163.54 235.31 148.00 234.64 C 132.62 234.27 116.74 236.61 103.23 244.37 C 87.91 252.56 77.37 267.74 72.01 283.99 C 65.09 305.20 64.58 328.31 69.41 350.03 C 73.32 367.67 83.41 384.44 98.97 394.10 C 114.17 403.42 132.31 407.69 150.08 406.73 C 166.42 405.99 182.21 400.39 196.39 392.45 C 200.11 390.23 203.91 388.02 207.09 385.04 C 208.81 383.52 208.03 380.99 208.22 379.00 C 207.95 367.26 208.54 355.50 207.74 343.78 C 186.70 343.75 165.65 343.85 144.61 343.73 C 144.63 335.33 144.62 326.93 144.62 318.53 C 175.14 318.49 205.66 318.43 236.18 318.56 C 236.19 345.10 236.15 371.64 236.20 398.17 C 223.08 409.19 208.03 417.94 192.01 424.01 C 167.11 433.44 139.33 434.71 113.57 428.15 C 93.25 422.68 73.74 412.05 60.44 395.44 C 46.07 377.54 38.65 354.76 37.08 332.04 C 35.01 303.11 41.62 273.08 58.07 248.96 C 68.42 233.77 83.98 222.58 101.23 216.50 Z" />
<path fill="#345899" d=" M 675.60 229.61 C 700.22 211.04 733.29 205.24 763.15 211.90 C 780.44 215.82 796.48 225.50 807.51 239.44 C 813.60 246.92 818.25 255.53 821.57 264.57 C 822.57 267.32 823.88 270.09 823.69 273.10 C 814.36 274.48 805.29 277.22 796.09 279.23 C 791.63 265.55 784.51 251.80 772.14 243.73 C 757.19 233.87 738.12 233.04 720.99 236.31 C 703.09 239.72 686.89 251.34 678.30 267.47 C 669.92 283.59 667.28 302.03 666.76 319.99 C 667.02 325.35 667.41 330.70 667.77 336.06 C 669.79 353.43 674.33 371.46 685.87 385.09 C 698.66 399.92 718.70 407.31 738.03 406.84 C 753.93 406.74 770.11 400.81 781.14 389.11 C 791.14 379.31 796.07 365.79 799.55 352.53 C 808.91 355.16 818.43 357.20 827.82 359.71 C 823.48 377.84 815.01 395.40 801.52 408.50 C 789.10 420.63 772.71 428.43 755.57 430.96 C 739.17 433.39 722.31 432.36 706.21 428.51 C 688.18 424.04 671.89 413.16 660.88 398.21 C 649.90 383.53 643.54 365.83 640.02 347.97 C 636.15 326.36 636.41 303.86 641.81 282.53 C 647.23 262.01 658.48 242.51 675.60 229.61 Z" />
<path fill="#0271c1" d=" M 1670.82 209.62 C 1687.93 209.64 1705.04 209.61 1722.16 209.63 C 1729.10 223.07 1735.59 236.75 1742.62 250.15 C 1736.05 264.00 1728.98 277.62 1722.13 291.33 C 1705.02 291.35 1687.92 291.31 1670.82 291.35 C 1664.03 278.27 1657.57 265.03 1650.95 251.87 C 1649.80 250.18 1651.35 248.49 1651.98 246.94 C 1658.34 234.54 1664.34 221.96 1670.82 209.62 Z" />
<path fill="#345899" d=" M 276.61 213.09 C 286.19 212.68 295.79 213.00 305.39 212.91 C 305.40 276.38 305.37 339.85 305.40 403.32 C 340.74 403.33 376.08 403.30 411.43 403.33 C 411.42 411.76 411.43 420.18 411.42 428.61 C 366.50 428.59 321.56 428.72 276.64 428.54 C 276.64 356.73 276.70 284.91 276.61 213.09 Z" />
<path fill="#345899" d=" M 422.84 212.95 C 433.94 212.87 445.03 212.89 456.13 212.91 C 457.85 212.58 458.42 214.60 459.30 215.64 C 480.21 248.48 502.64 280.39 521.84 314.29 C 541.47 280.36 564.15 248.34 585.33 215.39 C 586.10 214.58 586.42 212.88 587.82 213.01 C 598.58 212.76 609.37 212.93 620.15 212.95 C 591.90 254.43 563.04 295.51 534.68 336.91 C 534.22 338.21 534.39 339.63 534.34 340.99 C 534.41 370.19 534.34 399.38 534.37 428.58 C 524.83 428.66 515.28 428.61 505.74 428.61 C 505.76 399.41 505.70 370.21 505.77 341.02 C 505.65 339.58 505.95 338.03 505.31 336.70 C 477.93 295.39 450.12 254.33 422.84 212.95 Z" />
<path fill="#345899" d=" M 922.05 213.93 C 922.29 213.70 922.76 213.25 922.99 213.02 C 933.09 212.71 943.22 213.01 953.33 212.89 C 976.48 269.65 999.60 326.42 1022.78 383.17 C 1028.82 398.33 1035.26 413.33 1041.12 428.56 C 1030.32 428.68 1019.51 428.62 1008.71 428.59 C 1000.39 406.92 992.25 385.17 983.72 363.59 C 953.71 363.72 923.70 363.65 893.69 363.62 C 885.60 385.22 878.06 407.02 870.03 428.65 C 859.99 428.55 849.94 428.71 839.90 428.56 C 867.08 356.94 894.79 285.51 922.05 213.93 Z" />
<path fill="#345899" d=" M 1063.56 212.91 C 1073.38 212.89 1083.20 212.90 1093.03 212.90 C 1116.99 248.99 1141.14 284.94 1165.16 320.98 C 1178.61 341.36 1192.54 361.43 1205.67 382.01 C 1206.62 369.68 1205.75 357.31 1206.05 344.96 C 1206.19 315.28 1205.82 285.60 1206.01 255.92 C 1205.78 241.64 1206.34 227.36 1205.85 213.09 C 1215.02 212.68 1224.21 213.00 1233.38 212.91 C 1233.40 284.81 1233.39 356.71 1233.39 428.61 C 1223.58 428.58 1213.77 428.73 1203.97 428.53 C 1181.85 395.19 1159.58 361.96 1137.39 328.67 C 1122.13 305.57 1106.48 282.72 1091.44 259.48 C 1090.99 285.99 1091.37 312.50 1091.25 339.01 C 1091.25 368.85 1091.23 398.69 1091.26 428.52 C 1082.02 428.71 1072.78 428.62 1063.55 428.58 C 1063.56 356.69 1063.55 284.80 1063.56 212.91 Z" />
<path fill="#ffffff" d=" M 922.95 283.66 C 929.01 268.13 933.84 252.13 937.16 235.79 C 947.83 271.23 962.17 305.40 974.82 340.15 C 950.56 340.12 926.30 340.32 902.05 340.05 C 908.86 321.19 916.03 302.47 922.95 283.66 Z" />
<path fill="#568237" d=" M 2128.87 260.58 C 2138.76 260.49 2148.65 260.59 2158.55 260.53 C 2162.53 268.32 2166.42 276.16 2170.34 283.98 C 2166.29 291.79 2162.61 299.78 2158.40 307.49 C 2148.57 307.39 2138.75 307.54 2128.93 307.41 C 2125.17 299.59 2120.87 292.00 2117.44 284.04 C 2120.69 276.00 2125.21 268.47 2128.87 260.58 Z" />
<path fill="#345899" d=" M 2061.91 348.99 C 2065.75 343.31 2072.57 340.63 2079.12 339.60 C 2087.73 338.62 2097.07 339.38 2104.44 344.36 C 2110.13 348.28 2113.29 354.99 2113.68 361.79 C 2110.41 361.84 2107.15 361.83 2103.92 361.74 C 2103.23 358.15 2102.05 354.35 2099.03 352.04 C 2094.54 348.48 2088.49 348.14 2083.00 348.38 C 2078.20 348.55 2072.92 349.93 2069.97 354.00 C 2066.75 358.07 2067.94 365.02 2072.86 367.18 C 2080.57 370.80 2089.21 371.65 2097.31 374.13 C 2103.34 375.75 2109.36 378.79 2112.93 384.12 C 2117.60 391.31 2116.44 401.41 2110.86 407.78 C 2105.25 414.27 2096.34 416.94 2087.99 416.86 C 2079.46 416.93 2070.17 415.33 2063.85 409.14 C 2058.42 404.25 2055.81 396.94 2055.44 389.78 C 2058.65 389.74 2061.87 389.74 2065.11 389.78 C 2065.65 395.29 2067.97 401.09 2073.00 403.95 C 2080.95 408.73 2091.56 409.15 2099.82 404.88 C 2105.38 402.07 2108.18 394.02 2104.02 388.94 C 2099.36 384.06 2092.22 383.37 2086.05 381.65 C 2078.27 379.53 2069.66 378.22 2063.57 372.47 C 2057.22 366.50 2056.80 355.87 2061.91 348.99 Z" />
<path fill="#345899" d=" M 1309.70 340.20 C 1329.69 340.15 1349.69 340.18 1369.68 340.18 C 1369.68 343.21 1369.68 346.23 1369.69 349.26 C 1361.35 349.33 1353.01 349.16 1344.68 349.37 C 1344.71 371.58 1344.71 393.79 1344.68 416.00 C 1341.30 416.11 1337.92 416.05 1334.56 415.85 C 1334.61 393.66 1334.57 371.47 1334.58 349.27 C 1326.28 349.26 1317.99 349.29 1309.70 349.26 C 1309.68 346.24 1309.68 343.22 1309.70 340.20 Z" />
<path fill="#345899" d=" M 1380.64 340.29 C 1383.99 340.15 1387.35 340.15 1390.73 340.18 C 1390.72 350.34 1390.76 360.51 1390.70 370.67 C 1403.85 370.95 1417.00 370.75 1430.16 370.78 C 1430.17 360.58 1430.15 350.38 1430.17 340.18 C 1433.50 340.17 1436.84 340.17 1440.19 340.17 C 1440.20 365.44 1440.19 390.71 1440.19 415.97 C 1436.85 416.08 1433.52 416.08 1430.20 416.03 C 1430.10 403.98 1430.20 391.93 1430.15 379.87 C 1416.99 380.11 1403.78 379.33 1390.66 380.29 C 1390.80 392.20 1390.72 404.11 1390.70 416.03 C 1387.33 416.11 1383.97 416.05 1380.63 415.82 C 1380.69 390.64 1380.68 365.47 1380.64 340.29 Z" />
<path fill="#345899" d=" M 1456.47 340.22 C 1474.78 340.14 1493.09 340.14 1511.41 340.22 C 1511.39 343.23 1511.39 346.24 1511.40 349.25 C 1496.45 349.34 1481.51 349.17 1466.58 349.34 C 1466.60 356.77 1466.60 364.21 1466.58 371.65 C 1480.56 371.80 1494.54 371.66 1508.52 371.73 C 1508.52 374.73 1508.52 377.73 1508.54 380.73 C 1494.57 380.84 1480.61 380.75 1466.64 380.78 C 1466.52 389.46 1466.64 398.14 1466.57 406.82 C 1482.13 407.13 1497.70 406.59 1513.26 407.11 C 1513.22 410.01 1513.22 412.91 1513.25 415.82 C 1494.33 416.25 1475.38 416.15 1456.45 415.87 C 1456.51 390.65 1456.48 365.43 1456.47 340.22 Z" />
<path fill="#345899" d=" M 1526.78 340.36 C 1537.84 339.93 1548.92 340.29 1559.99 340.17 C 1566.68 340.26 1574.01 340.23 1579.75 344.20 C 1587.80 350.42 1590.00 362.97 1584.65 371.60 C 1581.01 378.02 1573.55 380.31 1566.85 381.92 C 1575.18 385.78 1579.72 394.21 1584.53 401.56 C 1587.27 406.25 1590.85 410.46 1592.91 415.52 C 1593.69 414.77 1594.46 414.01 1595.27 413.26 C 1604.66 388.87 1614.32 364.59 1623.75 340.22 C 1627.20 340.13 1630.67 340.13 1634.13 340.31 C 1644.45 365.62 1655.19 390.76 1665.57 416.04 C 1661.63 416.11 1657.69 416.11 1653.78 415.80 C 1651.04 407.98 1647.75 400.38 1644.93 392.60 C 1634.52 392.46 1624.11 392.60 1613.70 392.52 C 1610.75 400.25 1607.77 407.97 1605.16 415.82 C 1597.10 416.07 1589.01 416.12 1580.95 415.90 C 1575.51 407.37 1570.27 398.70 1564.28 390.54 C 1561.56 386.84 1557.89 383.42 1553.16 382.80 C 1547.86 382.34 1542.54 382.73 1537.25 382.60 C 1537.18 393.66 1537.20 404.73 1537.24 415.80 C 1533.77 416.12 1530.28 416.13 1526.82 415.83 C 1526.82 390.67 1526.90 365.52 1526.78 340.36 Z" />
<path fill="#345899" d=" M 1672.30 340.18 C 1683.53 340.20 1694.76 340.09 1705.99 340.24 C 1712.72 340.43 1720.20 341.81 1724.81 347.18 C 1732.27 356.01 1731.80 370.51 1723.69 378.78 C 1719.90 382.86 1714.22 384.23 1708.90 384.90 C 1700.09 385.81 1691.20 385.14 1682.36 385.36 C 1682.33 395.59 1682.38 405.82 1682.33 416.06 C 1678.98 416.07 1675.64 416.07 1672.31 415.99 C 1672.27 390.72 1672.29 365.45 1672.30 340.18 Z" />
<path fill="#345899" d=" M 1742.77 340.25 C 1761.08 340.08 1779.40 340.20 1797.71 340.19 C 1797.70 343.22 1797.70 346.25 1797.67 349.28 C 1782.86 349.25 1768.04 349.28 1753.24 349.27 C 1753.22 356.75 1753.22 364.23 1753.23 371.71 C 1767.09 371.73 1780.95 371.67 1794.81 371.75 C 1794.78 374.75 1794.78 377.76 1794.79 380.77 C 1780.93 380.83 1767.07 380.69 1753.22 380.84 C 1753.23 389.52 1753.22 398.21 1753.23 406.89 C 1768.65 406.94 1784.09 406.83 1799.52 406.95 C 1799.49 409.92 1799.50 412.89 1799.54 415.87 C 1780.62 416.18 1761.67 416.19 1742.76 415.84 C 1742.80 390.65 1742.77 365.45 1742.77 340.25 Z" />
<path fill="#345899" d=" M 1813.37 340.20 C 1816.72 340.17 1820.08 340.16 1823.46 340.18 C 1823.48 355.45 1823.41 370.71 1823.49 385.98 C 1823.70 391.96 1824.00 398.91 1828.79 403.22 C 1833.91 408.00 1841.48 408.23 1848.06 407.41 C 1852.76 406.71 1857.93 404.66 1860.03 400.05 C 1862.91 394.16 1862.81 387.41 1862.84 381.01 C 1862.83 367.39 1862.83 353.78 1862.84 340.17 C 1866.17 340.17 1869.50 340.17 1872.85 340.18 C 1872.85 355.79 1872.89 371.41 1872.84 387.02 C 1872.62 395.15 1871.27 404.24 1864.79 409.88 C 1858.20 416.08 1848.63 417.30 1839.97 416.78 C 1832.29 416.45 1824.12 413.94 1819.22 407.69 C 1814.51 401.58 1813.58 393.52 1813.40 386.04 C 1813.34 370.76 1813.39 355.48 1813.37 340.20 Z" />
<path fill="#345899" d=" M 1883.46 340.18 C 1903.44 340.16 1923.43 340.18 1943.43 340.17 C 1943.43 343.20 1943.43 346.23 1943.43 349.27 C 1935.12 349.28 1926.81 349.26 1918.50 349.28 C 1918.48 371.54 1918.53 393.80 1918.47 416.06 C 1915.08 416.09 1911.71 416.06 1908.35 415.92 C 1908.37 393.70 1908.37 371.49 1908.35 349.27 C 1900.05 349.27 1891.76 349.27 1883.46 349.27 C 1883.44 346.24 1883.44 343.21 1883.46 340.18 Z" />
<path fill="#345899" d=" M 1954.90 340.23 C 1958.28 340.16 1961.69 340.16 1965.10 340.19 C 1965.12 365.44 1965.09 390.69 1965.11 415.94 C 1961.69 416.11 1958.28 416.09 1954.89 415.87 C 1954.90 390.66 1954.89 365.44 1954.90 340.23 Z" />
<path fill="#345899" d=" M 1988.36 351.45 C 1997.55 340.06 2014.27 336.56 2027.83 341.16 C 2036.80 344.27 2043.47 352.34 2045.83 361.42 C 2042.53 362.26 2039.22 363.07 2035.88 363.68 C 2033.97 357.59 2029.95 351.61 2023.62 349.58 C 2014.79 346.74 2003.98 348.51 1997.54 355.52 C 1992.73 360.78 1991.20 368.10 1990.58 374.98 C 1990.24 382.96 1991.32 391.45 1995.73 398.29 C 2001.56 406.92 2013.63 409.79 2023.20 406.40 C 2030.56 403.90 2035.62 396.79 2036.89 389.27 C 2040.34 389.67 2043.69 390.61 2047.03 391.59 C 2045.16 400.13 2040.17 408.23 2032.48 412.67 C 2025.05 417.17 2015.92 417.48 2007.55 416.26 C 1999.46 415.07 1991.86 410.54 1987.41 403.62 C 1982.40 395.77 1979.95 386.34 1980.28 377.05 C 1980.03 367.97 1982.59 358.58 1988.36 351.45 Z" />
<path fill="#ffffff" d=" M 1537.22 349.27 C 1545.80 349.31 1554.40 349.20 1562.99 349.31 C 1567.54 349.46 1572.61 350.77 1575.26 354.81 C 1578.77 359.67 1577.31 367.08 1572.45 370.48 C 1569.17 372.81 1564.98 373.28 1561.09 373.48 C 1553.13 373.61 1545.17 373.49 1537.22 373.53 C 1537.20 365.44 1537.21 357.36 1537.22 349.27 Z" />
<path fill="#ffffff" d=" M 1682.36 349.28 C 1689.93 349.28 1697.51 349.23 1705.09 349.29 C 1708.75 349.31 1712.78 349.74 1715.56 352.40 C 1719.72 356.05 1720.37 362.24 1719.04 367.33 C 1717.60 372.14 1712.86 375.23 1708.01 375.70 C 1699.53 376.86 1690.92 375.98 1682.39 376.27 C 1682.30 367.27 1682.37 358.28 1682.36 349.28 Z" />
<path fill="#ffffff" d=" M 1628.76 349.51 C 1632.07 361.07 1637.11 372.03 1641.12 383.34 C 1633.07 383.58 1625.02 383.45 1616.97 383.42 C 1620.96 372.14 1626.09 361.22 1628.76 349.51 Z" />
</svg>
